<svg viewBox="0 0 24 24" xmlns="http://www.w3.org/2000/svg">
<path opacity="0.01" d="M.333.333h23v23h-23z"></path>
<path fill-rule="evenodd" clip-rule="evenodd" d="M19.001 18c0 .551-.448 1-1 1h-12c-.552 0-1-.449-1-1V6a1 1 0 011-1h12a1 1 0 011 1v12zM18 3H6C4.343 3 3 4.342 3 6v12a3 3 0 003 3h12a3 3 0 003-3V6a2.999 2.999 0 00-3-3z"></path>
<path fill-rule="evenodd" clip-rule="evenodd" d="M15.252 8.622l-4.325 4.872-2.18-2.455a1 1 0 10-1.495 1.329l2.927 3.296a1 1 0 001.496 0l5.073-5.714a1.001 1.001 0 00-1.496-1.328"></path>
</svg>