<svg xmlns="http://www.w3.org/2000/svg" viewBox="0 0 24 24"><g transform="translate(2 2)" fill-rule="evenodd"><path d="M3.004 1C1.345 1 0 2.614 0 4.604v10.792C0 17.386 1.345 19 3.004 19h13.992C18.656 19 20 17.386 20 15.396V4.604C20 2.614 18.655 1 16.996 1H3.004zm13.992 2C17.55 3 18 3.573 18 4.277v11.446c0 .704-.45 1.277-1.004 1.277H3.004C2.45 17 2 16.427 2 15.723V4.277C2 3.573 2.45 3 3.004 3h13.992"></path><path d="M0 5h19a1 1 0 010 2H1a1 1 0 01-1-1V5z"></path><rect transform="rotate(90 5 2)" x="3" y="1" width="4" height="2" rx="1"></rect><rect transform="rotate(90 15 2)" x="13" y="1" width="4" height="2" rx="1"></rect></g></svg>