<svg viewBox="0 0 24 24" xmlns="http://www.w3.org/2000/svg"><path d="M11.742 11.25a1.43 1.43 0 000-2.02 1.432 1.432 0 00-2.02 0l-4.547 4.544a3.578 3.578 0 000 5.051 3.576 3.576 0 005.05 0l8.588-8.587a3.571 3.571 0 10-5.051-5.05l-.253.254a1.074 1.074 0 01-1.515 0 1.074 1.074 0 010-1.516l.252-.254a5.72 5.72 0 018.082 0 5.72 5.72 0 010 8.082l-8.589 8.587a5.716 5.716 0 01-8.067-.013 5.716 5.716 0 01-.013-8.067l4.547-4.547a3.575 3.575 0 015.051 0 3.575 3.575 0 010 5.051L8.963 17.06a1.074 1.074 0 01-1.516 0 1.074 1.074 0 010-1.516l4.295-4.294z"></path></svg>