<svg xmlns="http://www.w3.org/2000/svg" viewBox="0 0 16 16"><path fill-rule="evenodd" clip-rule="evenodd" d="M1.333 2.667c0-.737.597-1.334 1.334-1.334h8c.736 0 1.333.597 1.333 1.334v.666h-1.334v-.222a.444.444 0 00-.444-.444H3.111a.444.444 0 00-.444.444v6.445c0 .245.199.444.444.444h.222v1.333h-.666A1.333 1.333 0 011.333 10V2.667z" fill-opacity="0.9"></path><path fill-rule="evenodd" clip-rule="evenodd" d="M4.667 3.333c-.737 0-1.334.597-1.334 1.334v8c0 .736.597 1.333 1.334 1.333h8.666c.737 0 1.334-.597 1.334-1.333v-8c0-.737-.597-1.334-1.334-1.334H4.667zm.444 1.334a.444.444 0 00-.444.444v7.111c0 .246.199.445.444.445h7.778a.444.444 0 00.444-.445v-7.11a.444.444 0 00-.444-.445H5.11z" fill-opacity="0.9"></path><path fill-rule="evenodd" clip-rule="evenodd" d="M6.667 10a.667.667 0 100 1.333H8A.666.666 0 108 10H6.667zM6.667 6a.666.666 0 100 1.333H8A.666.666 0 108 6H6.667z" fill-opacity="0.9"></path><path d="M6.667 7.333H8V10H6.667V7.333z" fill-opacity="0.9"></path></svg>