<svg viewBox="0 0 24 24" xmlns="http://www.w3.org/2000/svg"><path fill-rule="evenodd" clip-rule="evenodd" d="M19.001 17.998c0 .553-.449 1.002-1.002 1.002H6.003a1.002 1.002 0 01-1.002-1.002V6.002C5.001 5.449 5.45 5 6.003 5h11.996c.553 0 1.002.449 1.002 1.002v11.996zM17.998 3H6.002A3.002 3.002 0 003 6.002v11.996A3.002 3.002 0 006.002 21h11.996A3.002 3.002 0 0021 17.998V6.002A3.002 3.002 0 0017.998 3z"></path><path fill-rule="evenodd" clip-rule="evenodd" d="M16 11H8a1 1 0 100 2h8a1 1 0 100-2"></path><path opacity="0.01" d="M.333.333h23v23h-23z"></path></svg>