<svg viewBox="0 0 24 24" xmlns="http://www.w3.org/2000/svg"><path fill-rule="evenodd" clip-rule="evenodd" d="M19 18c0 .552-.448 1-1 1H6c-.552 0-1-.448-1-1V6a1 1 0 011-1h12a1 1 0 011 1v12zM18 3H6C4.343 3 3 4.342 3 6v12a3 3 0 003 3h12a3 3 0 003-3V6a2.999 2.999 0 00-3-3z"></path><path fill-rule="evenodd" clip-rule="evenodd" d="M12.001 14.5L9.96 15.574a.5.5 0 01-.726-.527l.39-2.274-1.652-1.61a.5.5 0 01.277-.854l2.284-.332 1.02-2.069a.5.5 0 01.898 0l1.02 2.07 2.284.331a.5.5 0 01.277.853l-1.652 1.61.39 2.274a.5.5 0 01-.726.528L12.001 14.5z"></path></svg>