<svg viewBox="0 0 24 24" xmlns="http://www.w3.org/2000/svg" class="coral-icon coral-icon-drop_down_line"><path fill-rule="evenodd" clip-rule="evenodd" d="M4 4a2 2 0 00-2 2v12a2 2 0 002 2h16a2 2 0 002-2V6a2 2 0 00-2-2H4zm.669 2a.667.667 0 00-.667.667v10.666c0 .369.298.667.667.667h14.666a.667.667 0 00.667-.667V6.667A.667.667 0 0019.335 6H4.67z"></path><path fill-rule="evenodd" clip-rule="evenodd" d="M10.693 9.793a1 1 0 011.415 0l2.12 2.12 2.122-2.12a1 1 0 011.414 1.414l-3.535 3.536-3.536-3.536a1 1 0 010-1.414z"></path><path opacity="0.01" d="M.333.333h23v23h-23z"></path></svg>